# Blender v3.0.0 OBJ File: 'wall.blend'
# www.blender.org
mtllib wall.mtl
o Plane.001
v -60.000000 -25.000000 -0.000003
v -60.000000 -27.500000 0.949667
v 60.000000 -25.000000 0.000003
v 60.000000 -27.500000 0.949672
v -60.000000 -25.882278 0.949667
v 60.000000 -25.874048 0.949672
v -60.000000 25.000000 -0.000002
v -60.000000 -25.000000 -0.000004
v 60.000000 25.000000 0.000004
v 60.000000 -25.000000 0.000002
vt 0.434147 0.000029
vt 0.451597 0.999971
vt 0.434147 0.999855
vt 0.416688 0.000088
vt 0.434139 0.999851
vt 0.416688 0.999913
vt 0.416681 0.000087
vt 0.000087 0.999913
vt 0.000087 0.000086
vt 0.451597 0.000145
vt 0.434139 0.000026
vt 0.416681 0.999913
vn -0.0000 0.7358 0.6772
vn -0.0000 -0.0000 1.0000
vn -0.0001 0.7326 0.6806
usemtl None
s off
f 1/1/1 6/2/1 3/3/1
f 5/4/2 4/5/2 6/6/2
f 8/7/2 9/8/2 7/9/2
f 1/1/3 5/10/3 6/2/3
f 5/4/2 2/11/2 4/5/2
f 8/7/2 10/12/2 9/8/2
