# Blender v3.0.0 OBJ File: 'window.blend'
# www.blender.org
mtllib window.mtl
o Cube.006
v -0.250000 7.375000 3.625127
v -0.250000 7.625000 -3.625123
v -0.250000 7.375000 -3.625123
v -0.250000 7.625000 3.625127
v 0.250000 7.625000 -3.625123
v 0.250000 7.625000 3.625127
v 0.250000 7.375000 -3.625123
v 0.250000 7.375000 3.625127
v -0.250000 11.000000 0.125004
v -0.250000 4.000000 -0.124998
v -0.250000 4.000000 0.125002
v -0.250000 11.000000 -0.124996
v 0.250000 4.000000 -0.124998
v 0.250000 11.000000 -0.124996
v 0.250000 4.000000 0.125002
v 0.250000 11.000000 0.125004
v -0.500000 4.000002 -4.999999
v 3.500000 3.999998 5.000000
v 3.500000 4.000002 -4.999999
v -0.500000 3.499998 5.000000
v 3.500000 3.499998 5.000000
v -0.500000 3.999998 5.000000
v -0.500000 3.500002 -4.999999
v 3.500000 3.500002 -4.999999
v -0.500000 11.500002 -4.124996
v 0.500000 11.499998 4.125004
v 0.500000 11.500002 -4.124996
v -0.500000 10.999998 4.125004
v 0.500000 10.999998 4.125004
v -0.500000 11.499998 4.125004
v -0.500000 11.000002 -4.124996
v 0.500000 11.000002 -4.124996
v -0.500000 10.999998 4.125004
v 0.500000 3.999998 4.125000
v 0.500000 10.999998 4.125004
v -0.500000 4.000000 3.625002
v 0.500000 4.000000 3.625002
v -0.500000 3.999998 4.125000
v -0.500000 10.999998 3.625004
v 0.500000 10.999998 3.625004
v -0.500000 11.000002 -3.624996
v 0.500000 4.000000 -3.624998
v 0.500000 11.000002 -3.624996
v -0.500000 4.000000 -4.125000
v 0.500000 4.000000 -4.125000
v -0.500000 4.000000 -3.624998
v -0.500000 11.000002 -4.124996
v 0.500000 11.000002 -4.124996
vt 0.679292 0.002392
vt 0.654409 0.723989
vt 0.654410 0.002392
vt 0.828993 0.699132
vt 0.878757 0.002433
vt 0.878757 0.699132
vt 0.878757 0.002433
vt 0.828992 0.699132
vt 0.828992 0.002433
vt 0.879457 0.699130
vt 0.904339 0.002435
vt 0.904339 0.699130
vt 0.879457 0.699130
vt 0.904338 0.002435
vt 0.904339 0.699130
vt 0.603951 0.724029
vt 0.653716 0.002425
vt 0.653715 0.724029
vt 0.653716 0.002425
vt 0.603951 0.724029
vt 0.603952 0.002425
vt 0.679292 0.002392
vt 0.654409 0.723989
vt 0.654410 0.002392
vt 0.679292 0.723989
vt 0.828993 0.002433
vt 0.878757 0.699132
vt 0.879456 0.002435
vt 0.879456 0.002435
vt 0.603951 0.002425
vt 0.653716 0.724029
vt 0.679292 0.723989
vt 0.454258 0.997706
vt 0.404493 0.002425
vt 0.454258 0.002425
vt 0.852504 0.823583
vt 0.454390 0.873348
vt 0.454390 0.823583
vt 0.404669 0.997710
vt 0.006555 0.002425
vt 0.404669 0.002425
vt 0.454390 0.873348
vt 0.852504 0.823583
vt 0.852504 0.873348
vt 0.404494 0.002425
vt 0.454258 0.997706
vt 0.404493 0.997705
vt 0.404669 0.997710
vt 0.006555 0.002425
vt 0.404669 0.002425
vt 0.404494 0.997706
vt 0.852504 0.873348
vt 0.006555 0.997710
vt 0.454390 0.823583
vt 0.454258 0.002425
vt 0.006555 0.997710
vt 0.504245 0.972904
vt 0.454481 0.873375
vt 0.504245 0.873375
vt 0.454481 0.873375
vt 0.504245 0.972903
vt 0.454481 0.972903
vt 0.603893 0.823533
vt 0.554128 0.002425
vt 0.603893 0.002425
vt 0.454209 0.002425
vt 0.553737 0.823535
vt 0.454209 0.823535
vt 0.603893 0.823533
vt 0.554128 0.002425
vt 0.603893 0.002425
vt 0.454485 0.002425
vt 0.554013 0.823535
vt 0.454485 0.823535
vt 0.454481 0.972903
vt 0.504245 0.873375
vt 0.554128 0.823533
vt 0.553737 0.002425
vt 0.554129 0.823533
vt 0.554013 0.002425
vt 0.679316 0.002425
vt 0.778844 0.699125
vt 0.679316 0.699125
vt 0.779060 0.002426
vt 0.828824 0.699124
vt 0.779059 0.699124
vt 0.679316 0.002425
vt 0.778844 0.699125
vt 0.679316 0.699125
vt 0.779060 0.002425
vt 0.828824 0.699124
vt 0.779060 0.699125
vt 0.778845 0.002425
vt 0.828824 0.002426
vt 0.778844 0.002425
vt 0.828824 0.002426
vt 0.778845 0.699125
vt 0.679316 0.002425
vt 0.778845 0.002425
vt 0.828824 0.699125
vt 0.779060 0.002425
vt 0.828824 0.002425
vt 0.778845 0.699124
vt 0.679316 0.002425
vt 0.778845 0.002425
vt 0.779059 0.002425
vt 0.828824 0.699125
vt 0.779060 0.699125
vt 0.679316 0.699125
vt 0.779060 0.699125
vt 0.679316 0.699124
vt 0.828824 0.002425
vn 1.0000 0.0000 0.0000
vn 0.0000 -0.0000 1.0000
vn 0.0000 0.0000 -1.0000
vn -1.0000 -0.0000 0.0000
vn 0.0000 1.0000 0.0000
vn 0.0000 -1.0000 -0.0000
usemtl None
s 1
f 8/1/1 5/2/1 6/3/1
f 9/4/2 15/5/2 16/6/2
f 14/7/3 10/8/3 12/9/3
f 16/10/1 13/11/1 14/12/1
f 12/13/4 11/14/4 9/15/4
f 6/16/5 2/17/5 4/18/5
f 1/19/6 7/20/6 8/21/6
f 4/22/4 3/23/4 1/24/4
f 8/1/1 7/25/1 5/2/1
f 9/4/2 11/26/2 15/5/2
f 14/7/3 13/27/3 10/8/3
f 16/10/1 15/28/1 13/11/1
f 12/13/4 10/29/4 11/14/4
f 6/16/5 5/30/5 2/17/5
f 1/19/6 3/31/6 7/20/6
f 4/22/4 2/32/4 3/23/4
usemtl Material.001
f 18/33/1 24/34/1 19/35/1
f 19/36/3 23/37/3 17/38/3
f 22/39/5 19/40/5 17/41/5
f 22/42/2 21/43/2 18/44/2
f 17/45/4 20/46/4 22/47/4
f 21/48/6 23/49/6 24/50/6
f 18/33/1 21/51/1 24/34/1
f 19/36/3 24/52/3 23/37/3
f 22/39/5 18/53/5 19/40/5
f 22/42/2 20/54/2 21/43/2
f 17/45/4 23/55/4 20/46/4
f 21/48/6 20/56/6 23/49/6
usemtl Material.002
f 27/57/3 31/58/3 25/59/3
f 30/60/2 29/61/2 26/62/2
f 26/63/1 32/64/1 27/65/1
f 29/66/6 31/67/6 32/68/6
f 25/69/4 28/70/4 30/71/4
f 30/72/5 27/73/5 25/74/5
f 27/57/3 32/75/3 31/58/3
f 30/60/2 28/76/2 29/61/2
f 26/63/1 29/77/1 32/64/1
f 29/66/6 28/78/6 31/67/6
f 25/69/4 31/79/4 28/70/4
f 30/72/5 26/80/5 27/73/5
usemtl Material.003
f 37/81/3 39/82/3 40/83/3
f 33/84/4 36/85/4 38/86/4
f 38/87/2 35/88/2 33/89/2
f 34/90/1 40/91/1 35/92/1
f 37/81/3 36/93/3 39/82/3
f 33/84/4 39/94/4 36/85/4
f 38/87/2 34/95/2 35/88/2
f 34/90/1 37/96/1 40/91/1
usemtl Material.004
f 45/97/3 47/98/3 48/99/3
f 41/100/4 44/101/4 46/102/4
f 46/103/2 43/104/2 41/105/2
f 42/106/1 48/107/1 43/108/1
f 45/97/3 44/109/3 47/98/3
f 41/100/4 47/110/4 44/101/4
f 46/103/2 42/111/2 43/104/2
f 42/106/1 45/112/1 48/107/1
